<?xml version="1.0" encoding="UTF-8"?>
<svg id="Layer_2" data-name="Layer 2" xmlns="http://www.w3.org/2000/svg" viewBox="0 0 571.14 209.67">
  <defs>
    <style>
      .cls-1 {
        fill: #231f20;
        stroke: #231f20;
        stroke-miterlimit: 10;
      }

      .cls-2 {
        fill: #6f22d3;
      }
    </style>
  </defs>
  <g id="Layer_1-2" data-name="Layer 1">
    <path class="cls-1" d="M.5,207.56V46.79h29.86v135.5h84.06v25.26H.5Z"/>
    <path class="cls-1" d="M165.22,209.17c-9.19,0-17.23-1.57-24.12-4.71-6.89-3.14-12.21-7.5-15.96-13.09-3.75-5.59-5.63-11.9-5.63-18.95s1.64-13.09,4.94-18.6c3.29-5.51,8.69-9.88,16.19-13.09,7.5-3.22,17.45-4.82,29.86-4.82h35.6v19.06h-33.53c-9.65,0-16.19,1.57-19.64,4.71-3.45,3.14-5.17,7.08-5.17,11.83,0,5.05,2.07,9.11,6.2,12.17,4.13,3.06,9.88,4.59,17.23,4.59s13.36-1.61,18.95-4.82c5.59-3.22,9.68-7.96,12.29-14.24l4.59,17.22c-2.76,7.2-7.66,12.79-14.7,16.77-7.04,3.98-16.08,5.97-27.1,5.97ZM203.81,207.56v-25.03l-1.38-5.05v-43.41c0-8.42-2.57-14.96-7.69-19.64-5.13-4.67-12.9-7-23.31-7-6.74,0-13.4,1.07-19.98,3.22-6.59,2.15-12.25,5.13-17,8.96l-11.25-20.9c6.74-5.05,14.62-8.88,23.66-11.48,9.03-2.6,18.45-3.9,28.25-3.9,17.91,0,31.69,4.29,41.34,12.86,9.65,8.58,14.47,21.74,14.47,39.5v71.89h-27.1Z"/>
    <path class="cls-1" d="M253.32,207.56v-122.64h27.33v33.76l-3.22-9.88c3.52-8.27,9.26-14.58,17.23-18.95,7.96-4.36,17.68-6.55,29.17-6.55v27.33c-1.07-.15-2.15-.27-3.22-.34-1.07-.08-2.07-.12-2.99-.12-11.02,0-19.75,3.14-26.18,9.42-6.43,6.28-9.65,15.85-9.65,28.71v59.25h-28.48Z"/>
    <path class="cls-1" d="M359.71,64.71c-5.36,0-9.76-1.68-13.21-5.05-3.44-3.37-5.17-7.5-5.17-12.4,0-4.59,1.72-8.57,5.17-11.94,3.44-3.37,7.84-5.05,13.21-5.05s9.76,1.57,13.21,4.71c3.44,3.14,5.17,7.16,5.17,12.06s-1.69,9.07-5.05,12.52c-3.37,3.44-7.81,5.17-13.32,5.17ZM345.47,207.56v-122.64h28.48v122.64h-28.48Z"/>
    <path class="cls-1" d="M447.44,209.17c-10.41,0-20.29-1.34-29.63-4.02-9.34-2.68-16.85-5.93-22.51-9.76l11.02-21.82c5.51,3.52,12.09,6.39,19.75,8.61,7.65,2.22,15.39,3.33,23.2,3.33,8.88,0,15.35-1.18,19.41-3.56,4.06-2.37,6.09-5.63,6.09-9.76,0-3.37-1.38-5.93-4.13-7.69-2.76-1.76-6.35-3.1-10.79-4.02-4.44-.92-9.38-1.76-14.81-2.53-5.44-.76-10.87-1.8-16.31-3.1-5.44-1.3-10.38-3.22-14.81-5.74-4.44-2.53-8.04-5.93-10.8-10.22-2.76-4.29-4.13-10.03-4.13-17.23,0-7.65,2.22-14.35,6.66-20.1,4.44-5.74,10.68-10.22,18.72-13.44,8.04-3.22,17.57-4.82,28.59-4.82,8.11,0,16.42.96,24.92,2.87,8.5,1.92,15.58,4.56,21.24,7.92l-11.25,21.82c-5.67-3.37-11.48-5.7-17.45-7-5.97-1.3-11.87-1.95-17.68-1.95-8.58,0-15.01,1.26-19.29,3.79-4.29,2.53-6.43,5.78-6.43,9.76,0,3.68,1.38,6.43,4.13,8.27,2.76,1.84,6.35,3.25,10.8,4.25,4.44,1,9.38,1.92,14.81,2.76,5.43.84,10.83,1.92,16.19,3.22,5.36,1.3,10.3,3.14,14.81,5.51,4.51,2.38,8.15,5.71,10.91,9.99,2.76,4.29,4.13,9.88,4.13,16.77,0,7.81-2.26,14.51-6.77,20.1-4.52,5.59-10.87,9.95-19.06,13.09-8.19,3.14-18.03,4.71-29.51,4.71Z"/>
    <rect class="cls-2" x="527.28" y="84.92" width="28.48" height="122.64"/>
    <g>
      <path class="cls-2" d="M559.97,0c1.13,3.91,2.76,7.38,6.5,9.37,1.39.74,2.9,1.03,4.29,1.67.56.26.46.47-.07.73-.85.41-2.08.65-2.99,1.04-3.11,1.34-5.18,3.42-6.52,6.53-.39.91-.64,2.16-1.04,2.99-.26.53-.47.63-.73.07-1.85-4.06-2.19-6.97-6.75-9.21-.6-.3-4.23-1.44-4.3-1.66-.03-.09-.05-.39.1-.42,3.3-.99,6.34-2.19,8.41-5.09,1.29-1.8,1.92-3.94,2.6-6.02h.48Z"/>
      <path class="cls-2" d="M534.01,13.72c1.61,4.18,2.7,8.41,5.43,12.04,4.2,5.58,9.96,7.73,16.39,9.83.3.21.3.78,0,.99-4.17,1.56-8.35,2.66-11.96,5.4-6.12,4.65-6.87,9.1-9.56,15.74-.21.52-.34,1.13-1.09.69-.32-.19-2.26-6.06-2.66-7.01-2.45-5.75-6.69-9.94-12.43-12.37-2.22-.94-4.63-1.53-6.82-2.52l-.15-.49.45-.54c6.17-1.94,11.69-4.09,15.82-9.31,2.89-3.65,4.05-7.94,5.66-12.23.18-.32.6-.31.93-.23Z"/>
      <path class="cls-2" d="M559.95,49.49c1.39,4.55,3.22,7.94,7.75,9.89.63.27,2.88.86,3.22,1.13.17.14.21.26.17.48-.05.24-3.82,1.41-4.51,1.77-3.77,1.97-5.42,5.42-6.59,9.33-.03.15-.32.13-.42.1-.25-.08-1.49-4.05-1.93-4.84-2.01-3.63-5.34-5.15-9.17-6.27-.15-.03-.13-.32-.1-.42.07-.22,3.7-1.37,4.3-1.66,3.85-1.89,5.72-5.56,6.83-9.53h.45Z"/>
    </g>
  </g>
</svg>